<?xml version="1.0" standalone="no"?>
<!DOCTYPE svg PUBLIC "-//W3C//DTD SVG 20010904//EN"
 "http://www.w3.org/TR/2001/REC-SVG-20010904/DTD/svg10.dtd">
<svg version="1.0" xmlns="http://www.w3.org/2000/svg"
 width="500.000000pt" height="500.000000pt" viewBox="0 0 500.000000 500.000000"
 preserveAspectRatio="xMidYMid meet">
<metadata>
Created by potrace 1.11, written by Peter Selinger 2001-2013
</metadata>
<g transform="translate(0.000000,500.000000) scale(0.100000,-0.100000)"
fill="#000000" stroke="none">
<path d="M3087 3262 c-158 -158 -287 -292 -287 -297 0 -6 132 -142 293 -303
l292 -292 80 80 79 80 -218 212 -219 212 57 52 c66 60 172 115 267 138 83 20
237 21 314 1 186 -47 364 -190 443 -355 44 -92 72 -206 72 -294 0 -162 -73
-345 -182 -459 -202 -208 -474 -267 -751 -161 l-47 18 -80 -79 c-43 -43 -77
-82 -74 -87 7 -11 95 -56 148 -75 194 -71 398 -77 588 -17 150 47 256 113 372
228 299 299 343 783 103 1136 -45 66 -154 176 -222 225 -141 100 -296 154
-470 162 l-110 5 -80 79 -80 79 -288 -288z"/>
<path d="M1215 3383 c-281 -60 -536 -271 -641 -533 -49 -121 -66 -207 -67
-340 0 -155 24 -264 88 -397 137 -282 406 -470 716 -502 51 -5 99 -6 107 -4 8
4 49 -29 103 -83 l88 -88 248 244 c136 134 273 268 303 298 l55 54 -290 283
-290 284 -78 -77 -77 -77 200 -200 200 -201 -42 -41 c-58 -55 -116 -90 -213
-127 -76 -29 -87 -30 -225 -30 -138 0 -149 1 -227 31 -107 41 -176 87 -261
177 -128 135 -189 300 -179 486 9 177 75 320 205 448 125 122 283 186 462 186
177 0 337 -64 461 -185 l73 -70 80 80 81 81 -55 56 c-129 131 -300 221 -484
253 -84 15 -258 12 -341 -6z"/>
<path d="M2070 2935 l-85 -85 525 -524 525 -523 82 86 82 87 -522 522 -522
522 -85 -85z"/>
</g>
</svg>
